<svg width="81" height="27" viewBox="0 0 81 27" fill="none" xmlns="http://www.w3.org/2000/svg">
<g filter="url(#filter0_d_19759_8921)">
<mask id="path-1-inside-1_19759_8921" fill="white">
<path d="M2.45271 23L10.9034 1.69226H15.1891L23.5492 23H18.5392L12.1408 5.31397H13.8611L7.37221 23H2.45271ZM7.25148 19.1368V15.2737H18.8711V19.1368H7.25148ZM25.8038 23V1.69226H30.5422V23H25.8038ZM37.2766 23V11.1339H38.9316V23H37.2766ZM33.1217 12.2958V10.7818H43.0689V12.2958H33.1217ZM46.4024 23.1761C45.7216 23.1761 45.1054 23.0235 44.5538 22.7183C44.0139 22.4014 43.5913 21.9671 43.2862 21.4155C42.981 20.8639 42.8284 20.2242 42.8284 19.4965V14.6374H44.4129V19.4261C44.4129 19.8838 44.4892 20.2829 44.6418 20.6233C44.8061 20.9519 45.0409 21.2042 45.346 21.3803C45.6512 21.5563 46.0092 21.6444 46.42 21.6444C47.042 21.6444 47.5291 21.4507 47.8812 21.0634C48.2333 20.6643 48.4094 20.1186 48.4094 19.4261V14.6374H49.9939V19.4965C49.9939 20.2242 49.8413 20.8639 49.5362 21.4155C49.231 21.9671 48.8085 22.4014 48.2686 22.7183C47.7404 23.0235 47.1183 23.1761 46.4024 23.1761ZM53.4028 23V11.1339H54.9873V23H53.4028ZM51.3429 16.081V14.6374H57.0471V16.081H51.3429ZM62.1618 23.1761C61.3402 23.1761 60.6008 22.9824 59.9435 22.5951C59.2862 22.2078 58.7639 21.6855 58.3766 21.0282C57.9893 20.3592 57.7956 19.6139 57.7956 18.7923C57.7956 17.9824 57.9893 17.2547 58.3766 16.6092C58.7639 15.9519 59.2862 15.4296 59.9435 15.0423C60.6008 14.655 61.3402 14.4613 62.1618 14.4613C62.9717 14.4613 63.7052 14.655 64.3625 15.0423C65.0315 15.4179 65.5597 15.9343 65.947 16.5916C66.3343 17.2489 66.528 17.9824 66.528 18.7923C66.528 19.6139 66.3343 20.3592 65.947 21.0282C65.5597 21.6855 65.0315 22.2078 64.3625 22.5951C63.7052 22.9824 62.9717 23.1761 62.1618 23.1761ZM62.1618 21.6444C62.69 21.6444 63.1594 21.5211 63.5702 21.2747C63.981 21.0282 64.3038 20.6937 64.5385 20.2711C64.7733 19.8369 64.8907 19.3439 64.8907 18.7923C64.8907 18.2524 64.7674 17.7712 64.5209 17.3486C64.2862 16.9261 63.9634 16.5975 63.5526 16.3627C63.1536 16.1162 62.69 15.993 62.1618 15.993C61.6336 15.993 61.1641 16.1162 60.7534 16.3627C60.3426 16.5975 60.0198 16.9261 59.785 17.3486C59.5503 17.7712 59.4329 18.2524 59.4329 18.7923C59.4329 19.3439 59.5503 19.8369 59.785 20.2711C60.0198 20.6937 60.3426 21.0282 60.7534 21.2747C61.1641 21.5211 61.6336 21.6444 62.1618 21.6444ZM68.3133 23V14.6374H69.8978V23H68.3133ZM69.8978 18.2289L69.2992 17.9648C69.2992 16.8967 69.5457 16.0458 70.0386 15.412C70.5316 14.7782 71.2417 14.4613 72.1689 14.4613C72.5914 14.4613 72.9729 14.5376 73.3133 14.6902C73.6536 14.831 73.9705 15.0716 74.264 15.412L73.2252 16.4859C73.0492 16.2982 72.8555 16.1632 72.6443 16.081C72.433 15.9989 72.1865 15.9578 71.9048 15.9578C71.318 15.9578 70.8367 16.1456 70.4612 16.5212C70.0856 16.8967 69.8978 17.466 69.8978 18.2289ZM75.7216 23.1761C75.393 23.1761 75.1172 23.0646 74.8942 22.8416C74.6829 22.6068 74.5773 22.331 74.5773 22.0141C74.5773 21.6855 74.6829 21.4155 74.8942 21.2042C75.1172 20.9812 75.393 20.8697 75.7216 20.8697C76.0503 20.8697 76.3202 20.9812 76.5315 21.2042C76.7545 21.4155 76.866 21.6855 76.866 22.0141C76.866 22.331 76.7545 22.6068 76.5315 22.8416C76.3202 23.0646 76.0503 23.1761 75.7216 23.1761Z"/>
</mask>
<path d="M2.45271 23L10.9034 1.69226H15.1891L23.5492 23H18.5392L12.1408 5.31397H13.8611L7.37221 23H2.45271ZM7.25148 19.1368V15.2737H18.8711V19.1368H7.25148ZM25.8038 23V1.69226H30.5422V23H25.8038ZM37.2766 23V11.1339H38.9316V23H37.2766ZM33.1217 12.2958V10.7818H43.0689V12.2958H33.1217ZM46.4024 23.1761C45.7216 23.1761 45.1054 23.0235 44.5538 22.7183C44.0139 22.4014 43.5913 21.9671 43.2862 21.4155C42.981 20.8639 42.8284 20.2242 42.8284 19.4965V14.6374H44.4129V19.4261C44.4129 19.8838 44.4892 20.2829 44.6418 20.6233C44.8061 20.9519 45.0409 21.2042 45.346 21.3803C45.6512 21.5563 46.0092 21.6444 46.42 21.6444C47.042 21.6444 47.5291 21.4507 47.8812 21.0634C48.2333 20.6643 48.4094 20.1186 48.4094 19.4261V14.6374H49.9939V19.4965C49.9939 20.2242 49.8413 20.8639 49.5362 21.4155C49.231 21.9671 48.8085 22.4014 48.2686 22.7183C47.7404 23.0235 47.1183 23.1761 46.4024 23.1761ZM53.4028 23V11.1339H54.9873V23H53.4028ZM51.3429 16.081V14.6374H57.0471V16.081H51.3429ZM62.1618 23.1761C61.3402 23.1761 60.6008 22.9824 59.9435 22.5951C59.2862 22.2078 58.7639 21.6855 58.3766 21.0282C57.9893 20.3592 57.7956 19.6139 57.7956 18.7923C57.7956 17.9824 57.9893 17.2547 58.3766 16.6092C58.7639 15.9519 59.2862 15.4296 59.9435 15.0423C60.6008 14.655 61.3402 14.4613 62.1618 14.4613C62.9717 14.4613 63.7052 14.655 64.3625 15.0423C65.0315 15.4179 65.5597 15.9343 65.947 16.5916C66.3343 17.2489 66.528 17.9824 66.528 18.7923C66.528 19.6139 66.3343 20.3592 65.947 21.0282C65.5597 21.6855 65.0315 22.2078 64.3625 22.5951C63.7052 22.9824 62.9717 23.1761 62.1618 23.1761ZM62.1618 21.6444C62.69 21.6444 63.1594 21.5211 63.5702 21.2747C63.981 21.0282 64.3038 20.6937 64.5385 20.2711C64.7733 19.8369 64.8907 19.3439 64.8907 18.7923C64.8907 18.2524 64.7674 17.7712 64.5209 17.3486C64.2862 16.9261 63.9634 16.5975 63.5526 16.3627C63.1536 16.1162 62.69 15.993 62.1618 15.993C61.6336 15.993 61.1641 16.1162 60.7534 16.3627C60.3426 16.5975 60.0198 16.9261 59.785 17.3486C59.5503 17.7712 59.4329 18.2524 59.4329 18.7923C59.4329 19.3439 59.5503 19.8369 59.785 20.2711C60.0198 20.6937 60.3426 21.0282 60.7534 21.2747C61.1641 21.5211 61.6336 21.6444 62.1618 21.6444ZM68.3133 23V14.6374H69.8978V23H68.3133ZM69.8978 18.2289L69.2992 17.9648C69.2992 16.8967 69.5457 16.0458 70.0386 15.412C70.5316 14.7782 71.2417 14.4613 72.1689 14.4613C72.5914 14.4613 72.9729 14.5376 73.3133 14.6902C73.6536 14.831 73.9705 15.0716 74.264 15.412L73.2252 16.4859C73.0492 16.2982 72.8555 16.1632 72.6443 16.081C72.433 15.9989 72.1865 15.9578 71.9048 15.9578C71.318 15.9578 70.8367 16.1456 70.4612 16.5212C70.0856 16.8967 69.8978 17.466 69.8978 18.2289ZM75.7216 23.1761C75.393 23.1761 75.1172 23.0646 74.8942 22.8416C74.6829 22.6068 74.5773 22.331 74.5773 22.0141C74.5773 21.6855 74.6829 21.4155 74.8942 21.2042C75.1172 20.9812 75.393 20.8697 75.7216 20.8697C76.0503 20.8697 76.3202 20.9812 76.5315 21.2042C76.7545 21.4155 76.866 21.6855 76.866 22.0141C76.866 22.331 76.7545 22.6068 76.5315 22.8416C76.3202 23.0646 76.0503 23.1761 75.7216 23.1761Z" fill="white"/>
<path d="M2.45271 23L2.2873 22.9344L2.1907 23.178H2.45271V23ZM10.9034 1.69226V1.51431H10.7825L10.738 1.62666L10.9034 1.69226ZM15.1891 1.69226L15.3547 1.62726L15.3104 1.51431H15.1891V1.69226ZM23.5492 23V23.178H23.8102L23.7148 22.935L23.5492 23ZM18.5392 23L18.3718 23.0605L18.4143 23.178H18.5392V23ZM12.1408 5.31397V5.13602H11.8872L11.9735 5.37451L12.1408 5.31397ZM13.8611 5.31397L14.0282 5.37527L14.1159 5.13602H13.8611V5.31397ZM7.37221 23V23.178H7.49647L7.53927 23.0613L7.37221 23ZM7.25148 19.1368H7.07353V19.3148H7.25148V19.1368ZM7.25148 15.2737V15.0957H7.07353V15.2737H7.25148ZM18.8711 15.2737H19.0491V15.0957H18.8711V15.2737ZM18.8711 19.1368V19.3148H19.0491V19.1368H18.8711ZM2.61813 23.0656L11.0688 1.75787L10.738 1.62666L2.2873 22.9344L2.61813 23.0656ZM10.9034 1.87021H15.1891V1.51431H10.9034V1.87021ZM15.0234 1.75726L23.3835 23.065L23.7148 22.935L15.3547 1.62726L15.0234 1.75726ZM23.5492 22.822H18.5392V23.178H23.5492V22.822ZM18.7065 22.9395L12.3081 5.25343L11.9735 5.37451L18.3718 23.0605L18.7065 22.9395ZM12.1408 5.49193H13.8611V5.13602H12.1408V5.49193ZM13.694 5.25268L7.20514 22.9387L7.53927 23.0613L14.0282 5.37527L13.694 5.25268ZM7.37221 22.822H2.45271V23.178H7.37221V22.822ZM7.42944 19.1368V15.2737H7.07353V19.1368H7.42944ZM7.25148 15.4516H18.8711V15.0957H7.25148V15.4516ZM18.6932 15.2737V19.1368H19.0491V15.2737H18.6932ZM18.8711 18.9589H7.25148V19.3148H18.8711V18.9589ZM25.8038 23H25.6258V23.178H25.8038V23ZM25.8038 1.69226V1.51431H25.6258V1.69226H25.8038ZM30.5422 1.69226H30.7202V1.51431H30.5422V1.69226ZM30.5422 23V23.178H30.7202V23H30.5422ZM25.9818 23V1.69226H25.6258V23H25.9818ZM25.8038 1.87021H30.5422V1.51431H25.8038V1.87021ZM30.3643 1.69226V23H30.7202V1.69226H30.3643ZM30.5422 22.822H25.8038V23.178H30.5422V22.822ZM37.2766 23H37.0987V23.178H37.2766V23ZM37.2766 11.1339V10.9559H37.0987V11.1339H37.2766ZM38.9316 11.1339H39.1095V10.9559H38.9316V11.1339ZM38.9316 23V23.178H39.1095V23H38.9316ZM33.1217 12.2958H32.9438V12.4738H33.1217V12.2958ZM33.1217 10.7818V10.6038H32.9438V10.7818H33.1217ZM43.0689 10.7818H43.2468V10.6038H43.0689V10.7818ZM43.0689 12.2958V12.4738H43.2468V12.2958H43.0689ZM37.4546 23V11.1339H37.0987V23H37.4546ZM37.2766 11.3118H38.9316V10.9559H37.2766V11.3118ZM38.7536 11.1339V23H39.1095V11.1339H38.7536ZM38.9316 22.822H37.2766V23.178H38.9316V22.822ZM33.2997 12.2958V10.7818H32.9438V12.2958H33.2997ZM33.1217 10.9597H43.0689V10.6038H33.1217V10.9597ZM42.8909 10.7818V12.2958H43.2468V10.7818H42.8909ZM43.0689 12.1179H33.1217V12.4738H43.0689V12.1179ZM44.5538 22.7183L44.4637 22.8718L44.4676 22.874L44.5538 22.7183ZM43.2862 21.4155L43.4419 21.3294L43.2862 21.4155ZM42.8284 14.6374V14.4594H42.6505V14.6374H42.8284ZM44.4129 14.6374H44.5909V14.4594H44.4129V14.6374ZM44.6418 20.6233L44.4793 20.6961L44.4826 20.7028L44.6418 20.6233ZM45.346 21.3803L45.435 21.2261L45.346 21.3803ZM47.8812 21.0634L48.0129 21.1831L48.0147 21.1811L47.8812 21.0634ZM48.4094 14.6374V14.4594H48.2314V14.6374H48.4094ZM49.9939 14.6374H50.1718V14.4594H49.9939V14.6374ZM49.5362 21.4155L49.6919 21.5016L49.5362 21.4155ZM48.2686 22.7183L48.3576 22.8724L48.3586 22.8718L48.2686 22.7183ZM46.4024 22.9981C45.7493 22.9981 45.1631 22.852 44.6399 22.5626L44.4676 22.874C45.0477 23.1949 45.694 23.354 46.4024 23.354V22.9981ZM44.6439 22.5648C44.1317 22.2642 43.7317 21.8533 43.4419 21.3294L43.1305 21.5016C43.451 22.081 43.8961 22.5386 44.4637 22.8718L44.6439 22.5648ZM43.4419 21.3294C43.1534 20.8079 43.0064 20.1988 43.0064 19.4965H42.6505C42.6505 20.2496 42.8086 20.9198 43.1305 21.5016L43.4419 21.3294ZM43.0064 19.4965V14.6374H42.6505V19.4965H43.0064ZM42.8284 14.8153H44.4129V14.4594H42.8284V14.8153ZM44.235 14.6374V19.4261H44.5909V14.6374H44.235ZM44.235 19.4261C44.235 19.9033 44.3145 20.3282 44.4794 20.696L44.8042 20.5505C44.6639 20.2376 44.5909 19.8643 44.5909 19.4261H44.235ZM44.4826 20.7028C44.6619 21.0613 44.9204 21.3402 45.2571 21.5344L45.435 21.2261C45.1614 21.0683 44.9504 20.8425 44.801 20.5437L44.4826 20.7028ZM45.2571 21.5344C45.5935 21.7285 45.9832 21.8223 46.42 21.8223V21.4664C46.0352 21.4664 45.7089 21.3842 45.435 21.2261L45.2571 21.5344ZM46.42 21.8223C47.0819 21.8223 47.6207 21.6145 48.0129 21.1831L47.7496 20.9437C47.4375 21.2869 47.0022 21.4664 46.42 21.4664V21.8223ZM48.0147 21.1811C48.4032 20.7408 48.5873 20.1486 48.5873 19.4261H48.2314C48.2314 20.0886 48.0635 20.5879 47.7478 20.9457L48.0147 21.1811ZM48.5873 19.4261V14.6374H48.2314V19.4261H48.5873ZM48.4094 14.8153H49.9939V14.4594H48.4094V14.8153ZM49.8159 14.6374V19.4965H50.1718V14.6374H49.8159ZM49.8159 19.4965C49.8159 20.1988 49.6689 20.8079 49.3804 21.3294L49.6919 21.5016C50.0137 20.9198 50.1718 20.2496 50.1718 19.4965H49.8159ZM49.3804 21.3294C49.0906 21.8533 48.6907 22.2642 48.1785 22.5648L48.3586 22.8718C48.9263 22.5386 49.3714 22.081 49.6919 21.5016L49.3804 21.3294ZM48.1795 22.5642C47.6828 22.8512 47.0925 22.9981 46.4024 22.9981V23.354C47.1441 23.354 47.798 23.1957 48.3576 22.8724L48.1795 22.5642ZM53.4028 23H53.2248V23.178H53.4028V23ZM53.4028 11.1339V10.9559H53.2248V11.1339H53.4028ZM54.9873 11.1339H55.1652V10.9559H54.9873V11.1339ZM54.9873 23V23.178H55.1652V23H54.9873ZM51.3429 16.081H51.165V16.259H51.3429V16.081ZM51.3429 14.6374V14.4594H51.165V14.6374H51.3429ZM57.0471 14.6374H57.2251V14.4594H57.0471V14.6374ZM57.0471 16.081V16.259H57.2251V16.081H57.0471ZM53.5807 23V11.1339H53.2248V23H53.5807ZM53.4028 11.3118H54.9873V10.9559H53.4028V11.3118ZM54.8093 11.1339V23H55.1652V11.1339H54.8093ZM54.9873 22.822H53.4028V23.178H54.9873V22.822ZM51.5209 16.081V14.6374H51.165V16.081H51.5209ZM51.3429 14.8153H57.0471V14.4594H51.3429V14.8153ZM56.8692 14.6374V16.081H57.2251V14.6374H56.8692ZM57.0471 15.9031H51.3429V16.259H57.0471V15.9031ZM59.9435 22.5951L59.8532 22.7484L59.9435 22.5951ZM58.3766 21.0282L58.2226 21.1173L58.2233 21.1185L58.3766 21.0282ZM58.3766 16.6092L58.5292 16.7007L58.5299 16.6995L58.3766 16.6092ZM59.9435 15.0423L59.8532 14.889L59.9435 15.0423ZM64.3625 15.0423L64.2721 15.1956L64.2754 15.1975L64.3625 15.0423ZM65.947 16.5916L66.1003 16.5012L65.947 16.5916ZM65.947 21.0282L66.1003 21.1185L66.101 21.1173L65.947 21.0282ZM64.3625 22.5951L64.2733 22.4411L64.2721 22.4418L64.3625 22.5951ZM63.5702 21.2747L63.4787 21.1221L63.5702 21.2747ZM64.5385 20.2711L64.6941 20.3576L64.6951 20.3558L64.5385 20.2711ZM64.5209 17.3486L64.3653 17.4351L64.3672 17.4383L64.5209 17.3486ZM63.5526 16.3627L63.4591 16.5142L63.4643 16.5172L63.5526 16.3627ZM60.7534 16.3627L60.8417 16.5173L60.8449 16.5153L60.7534 16.3627ZM59.785 17.3486L59.9406 17.435L59.785 17.3486ZM59.785 20.2711L59.6285 20.3558L59.6295 20.3576L59.785 20.2711ZM62.1618 22.9981C61.3694 22.9981 60.6616 22.8117 60.0338 22.4418L59.8532 22.7484C60.5399 23.1531 61.311 23.354 62.1618 23.354V22.9981ZM60.0338 22.4418C59.4026 22.0697 58.9019 21.5691 58.5299 20.9378L58.2233 21.1185C58.6259 21.8018 59.1699 22.3458 59.8532 22.7484L60.0338 22.4418ZM58.5306 20.939C58.16 20.2988 57.9736 19.5846 57.9736 18.7923H57.6177C57.6177 19.6431 57.8186 20.4195 58.2226 21.1173L58.5306 20.939ZM57.9736 18.7923C57.9736 18.0121 58.1597 17.3165 58.5292 16.7007L58.224 16.5176C57.8188 17.1929 57.6177 17.9527 57.6177 18.7923H57.9736ZM58.5299 16.6995C58.9019 16.0682 59.4026 15.5676 60.0338 15.1956L59.8532 14.889C59.1699 15.2916 58.6259 15.8356 58.2233 16.5188L58.5299 16.6995ZM60.0338 15.1956C60.6616 14.8257 61.3694 14.6393 62.1618 14.6393V14.2834C61.311 14.2834 60.5399 14.4843 59.8532 14.889L60.0338 15.1956ZM62.1618 14.6393C62.9419 14.6393 63.6439 14.8254 64.2721 15.1956L64.4528 14.889C63.7665 14.4845 63.0014 14.2834 62.1618 14.2834V14.6393ZM64.2754 15.1975C64.9171 15.5578 65.4224 16.0519 65.7937 16.6819L66.1003 16.5012C65.6969 15.8167 65.1459 15.278 64.4496 14.8871L64.2754 15.1975ZM65.7937 16.6819C66.1639 17.3101 66.35 18.0122 66.35 18.7923H66.7059C66.7059 17.9527 66.5048 17.1876 66.1003 16.5012L65.7937 16.6819ZM66.35 18.7923C66.35 19.5846 66.1636 20.2988 65.793 20.939L66.101 21.1173C66.505 20.4195 66.7059 19.6431 66.7059 18.7923H66.35ZM65.7937 20.9378C65.4221 21.5684 64.9162 22.0689 64.2733 22.4411L64.4517 22.7491C65.1468 22.3466 65.6972 21.8026 66.1003 21.1185L65.7937 20.9378ZM64.2721 22.4418C63.6439 22.8119 62.9419 22.9981 62.1618 22.9981V23.354C63.0014 23.354 63.7665 23.1528 64.4528 22.7484L64.2721 22.4418ZM62.1618 21.8223C62.7188 21.8223 63.2206 21.692 63.6618 21.4272L63.4787 21.1221C63.0983 21.3503 62.6611 21.4664 62.1618 21.4664V21.8223ZM63.6618 21.4272C64.0996 21.1646 64.4443 20.8071 64.6941 20.3576L64.383 20.1847C64.1633 20.5802 63.8625 20.8918 63.4787 21.1221L63.6618 21.4272ZM64.6951 20.3558C64.9455 19.8926 65.0686 19.3699 65.0686 18.7923H64.7127C64.7127 19.3179 64.6011 19.7812 64.382 20.1865L64.6951 20.3558ZM65.0686 18.7923C65.0686 18.2242 64.9386 17.7115 64.6747 17.259L64.3672 17.4383C64.5962 17.8308 64.7127 18.2805 64.7127 18.7923H65.0686ZM64.6765 17.2622C64.4263 16.8119 64.0806 16.4594 63.6409 16.2082L63.4643 16.5172C63.8463 16.7355 64.1461 17.0403 64.3654 17.435L64.6765 17.2622ZM63.6461 16.2113C63.2156 15.9454 62.7187 15.815 62.1618 15.815V16.1709C62.6612 16.1709 63.0916 16.2871 63.4591 16.5141L63.6461 16.2113ZM62.1618 15.815C61.6048 15.815 61.103 15.9454 60.6618 16.2101L60.8449 16.5153C61.2253 16.2871 61.6625 16.1709 62.1618 16.1709V15.815ZM60.6651 16.2082C60.2254 16.4594 59.8797 16.8119 59.6295 17.2622L59.9406 17.435C60.1599 17.0403 60.4597 16.7355 60.8416 16.5172L60.6651 16.2082ZM59.6295 17.2622C59.3784 17.7142 59.255 18.2257 59.255 18.7923H59.6109C59.6109 18.279 59.7222 17.8282 59.9406 17.435L59.6295 17.2622ZM59.255 18.7923C59.255 19.3699 59.3781 19.8926 59.6285 20.3558L59.9416 20.1865C59.7225 19.7812 59.6109 19.3179 59.6109 18.7923H59.255ZM59.6295 20.3576C59.8792 20.8071 60.224 21.1646 60.6618 21.4272L60.8449 21.1221C60.4611 20.8918 60.1603 20.5802 59.9406 20.1847L59.6295 20.3576ZM60.6618 21.4272C61.103 21.692 61.6048 21.8223 62.1618 21.8223V21.4664C61.6625 21.4664 61.2253 21.3503 60.8449 21.1221L60.6618 21.4272ZM68.3133 23H68.1353V23.178H68.3133V23ZM68.3133 14.6374V14.4594H68.1353V14.6374H68.3133ZM69.8978 14.6374H70.0757V14.4594H69.8978V14.6374ZM69.8978 23V23.178H70.0757V23H69.8978ZM69.8978 18.2289L69.826 18.3917L70.0757 18.5019V18.2289H69.8978ZM69.2992 17.9648H69.1212V18.0808L69.2274 18.1276L69.2992 17.9648ZM70.0386 15.412L69.8982 15.3028L70.0386 15.412ZM73.3133 14.6902L73.2404 14.8526L73.2452 14.8546L73.3133 14.6902ZM74.264 15.412L74.3919 15.5357L74.5049 15.4189L74.3987 15.2958L74.264 15.412ZM73.2252 16.4859L73.0954 16.6077L73.2232 16.744L73.3531 16.6097L73.2252 16.4859ZM70.4612 16.5212L70.3353 16.3953L70.4612 16.5212ZM68.4912 23V14.6374H68.1353V23H68.4912ZM68.3133 14.8153H69.8978V14.4594H68.3133V14.8153ZM69.7198 14.6374V23H70.0757V14.6374H69.7198ZM69.8978 22.822H68.3133V23.178H69.8978V22.822ZM69.9696 18.0661L69.371 17.802L69.2274 18.1276L69.826 18.3917L69.9696 18.0661ZM69.4771 17.9648C69.4771 16.9233 69.7174 16.1149 70.1791 15.5213L69.8982 15.3028C69.374 15.9767 69.1212 16.8702 69.1212 17.9648H69.4771ZM70.1791 15.5213C70.6329 14.9379 71.287 14.6393 72.1689 14.6393V14.2834C71.1964 14.2834 70.4303 14.6186 69.8982 15.3028L70.1791 15.5213ZM72.1689 14.6393C72.5697 14.6393 72.9258 14.7115 73.2405 14.8526L73.3861 14.5278C73.0199 14.3637 72.6132 14.2834 72.1689 14.2834V14.6393ZM73.2452 14.8546C73.5548 14.9827 73.85 15.2043 74.1292 15.5282L74.3987 15.2958C74.0911 14.9389 73.7524 14.6793 73.3813 14.5258L73.2452 14.8546ZM74.136 15.2883L73.0973 16.3622L73.3531 16.6097L74.3919 15.5357L74.136 15.2883ZM73.3551 16.3642C73.1633 16.1597 72.948 16.0082 72.7087 15.9152L72.5798 16.2469C72.7631 16.3182 72.9351 16.4366 73.0954 16.6077L73.3551 16.3642ZM72.7087 15.9152C72.4726 15.8233 72.2034 15.7798 71.9048 15.7798V16.1357C72.1696 16.1357 72.3934 16.1744 72.5798 16.2469L72.7087 15.9152ZM71.9048 15.7798C71.2762 15.7798 70.7479 15.9827 70.3353 16.3953L70.587 16.647C70.9256 16.3084 71.3597 16.1357 71.9048 16.1357V15.7798ZM70.3353 16.3953C69.9141 16.8165 69.7198 17.4395 69.7198 18.2289H70.0757C70.0757 17.4925 70.257 16.977 70.587 16.647L70.3353 16.3953ZM74.8942 22.8416L74.7617 22.9608L74.7683 22.9674L74.8942 22.8416ZM76.5315 21.2042L76.4021 21.3268L76.4091 21.3334L76.5315 21.2042ZM76.5315 22.8416L76.4025 22.719L76.4023 22.7192L76.5315 22.8416ZM75.7216 22.9981C75.438 22.9981 75.2081 22.9038 75.02 22.7157L74.7683 22.9674C75.0263 23.2253 75.348 23.354 75.7216 23.354V22.9981ZM75.0265 22.7225C74.8447 22.5206 74.7552 22.2872 74.7552 22.0141H74.3993C74.3993 22.3748 74.5211 22.6931 74.7619 22.9606L75.0265 22.7225ZM74.7552 22.0141C74.7552 21.7275 74.8456 21.5045 75.02 21.3301L74.7683 21.0784C74.5202 21.3265 74.3993 21.6434 74.3993 22.0141H74.7552ZM75.02 21.3301C75.2081 21.142 75.438 21.0477 75.7216 21.0477V20.6918C75.348 20.6918 75.0263 20.8205 74.7683 21.0784L75.02 21.3301ZM75.7216 21.0477C76.0052 21.0477 76.2272 21.1418 76.4023 21.3266L76.6607 21.0818C76.4133 20.8207 76.0953 20.6918 75.7216 20.6918V21.0477ZM76.4091 21.3334C76.594 21.5085 76.688 21.7305 76.688 22.0141H77.044C77.044 21.6404 76.915 21.3225 76.6539 21.075L76.4091 21.3334ZM76.688 22.0141C76.688 22.2843 76.5948 22.5165 76.4025 22.719L76.6605 22.9641C76.9142 22.6971 77.044 22.3777 77.044 22.0141H76.688ZM76.4023 22.7192C76.2272 22.904 76.0052 22.9981 75.7216 22.9981V23.354C76.0953 23.354 76.4133 23.2251 76.6607 22.9639L76.4023 22.7192Z" fill="black" fill-opacity="0.05" mask="url(#path-1-inside-1_19759_8921)"/>
</g>
<defs>
<filter id="filter0_d_19759_8921" x="0.566451" y="0.161982" width="79.6095" height="26.6801" filterUnits="userSpaceOnUse" color-interpolation-filters="sRGB">
<feFlood flood-opacity="0" result="BackgroundImageFix"/>
<feColorMatrix in="SourceAlpha" type="matrix" values="0 0 0 0 0 0 0 0 0 0 0 0 0 0 0 0 0 0 127 0" result="hardAlpha"/>
<feOffset dx="0.711814" dy="1.06772"/>
<feGaussianBlur stdDeviation="1.29906"/>
<feComposite in2="hardAlpha" operator="out"/>
<feColorMatrix type="matrix" values="0 0 0 0 0.0235294 0 0 0 0 0.372549 0 0 0 0 0.941176 0 0 0 0.1 0"/>
<feBlend mode="normal" in2="BackgroundImageFix" result="effect1_dropShadow_19759_8921"/>
<feBlend mode="normal" in="SourceGraphic" in2="effect1_dropShadow_19759_8921" result="shape"/>
</filter>
</defs>
</svg>
