<svg width="24" height="24" viewBox="0 0 24 24" fill="none" xmlns="http://www.w3.org/2000/svg">
<path d="M10 9.5L8 12L10 14.5" stroke="url(#paint0_linear_19967_2174)" stroke-width="1.5" stroke-linecap="round" stroke-linejoin="round"/>
<path d="M14 9.5L16 12L14 14.5" stroke="url(#paint1_linear_19967_2174)" stroke-width="1.5" stroke-linecap="round" stroke-linejoin="round"/>
<path d="M7.9 20C9.80858 20.9791 12.0041 21.2443 14.0909 20.7478C16.1777 20.2514 18.0186 19.0259 19.2818 17.2922C20.545 15.5586 21.1474 13.4308 20.9806 11.2922C20.8137 9.15366 19.8886 7.14502 18.3718 5.62824C16.855 4.11146 14.8464 3.1863 12.7078 3.01946C10.5693 2.85263 8.44147 3.45509 6.70782 4.71829C4.97417 5.98149 3.74869 7.82236 3.25222 9.90916C2.75575 11.996 3.02094 14.1915 4 16.1L2 22L7.9 20Z" stroke="url(#paint2_linear_19967_2174)" stroke-width="1.5" stroke-linecap="round" stroke-linejoin="round"/>
<defs>
<linearGradient id="paint0_linear_19967_2174" x1="8" y1="12" x2="10" y2="12" gradientUnits="userSpaceOnUse">
<stop stop-color="#6250E9"/>
<stop offset="1" stop-color="#69BDFF"/>
</linearGradient>
<linearGradient id="paint1_linear_19967_2174" x1="14" y1="12" x2="16" y2="12" gradientUnits="userSpaceOnUse">
<stop stop-color="#6250E9"/>
<stop offset="1" stop-color="#69BDFF"/>
</linearGradient>
<linearGradient id="paint2_linear_19967_2174" x1="2" y1="12.4961" x2="21.0079" y2="12.4961" gradientUnits="userSpaceOnUse">
<stop stop-color="#6250E9"/>
<stop offset="1" stop-color="#69BDFF"/>
</linearGradient>
</defs>
</svg>
